<?xml version="1.0" standalone="no"?>
<!DOCTYPE svg PUBLIC "-//W3C//DTD SVG 20010904//EN"
 "http://www.w3.org/TR/2001/REC-SVG-20010904/DTD/svg10.dtd">
<svg version="1.0" xmlns="http://www.w3.org/2000/svg"
 width="408.000000pt" height="408.000000pt" viewBox="0 0 408.000000 408.000000"
 preserveAspectRatio="xMidYMid meet">
<metadata>
Created by potrace 1.11, written by Peter Selinger 2001-2013
</metadata>
<g transform="translate(0.000000,408.000000) scale(0.100000,-0.100000)"
fill="#000000" stroke="none">
<path d="M2090 3042 c-13 -2 -15 -62 -13 -475 1 -259 2 -489 2 -509 l1 -38
310 0 310 0 0 55 0 55 -242 2 -243 3 0 453 c0 248 -2 453 -5 453 -12 3 -106 4
-120 1z"/>
<path d="M3037 3035 c-2 -5 -3 -235 -3 -510 l1 -500 230 0 c200 0 237 2 284
19 147 51 222 225 163 377 -16 41 -73 100 -114 119 l-37 16 49 37 c63 47 92
103 93 176 2 149 -75 237 -233 268 -50 10 -430 8 -433 -2z m453 -128 c69 -34
96 -105 69 -188 -15 -46 -72 -96 -117 -103 -33 -6 -169 -9 -244 -7 l-28 1 0
159 0 160 43 3 c112 8 232 -3 277 -25z m23 -432 c81 -41 109 -181 53 -265 -41
-62 -80 -75 -248 -78 l-148 -3 0 186 0 187 153 -4 c124 -3 159 -7 190 -23z"/>
<path d="M360 2820 l0 -120 260 0 260 0 0 120 0 120 -260 0 -260 0 0 -120z"/>
<path d="M1040 2820 l0 -120 380 0 380 0 0 120 0 120 -380 0 -380 0 0 -120z"/>
<path d="M1440 2380 l0 -120 180 0 180 0 0 120 0 120 -180 0 -180 0 0 -120z"/>
<path d="M0 1940 l0 -120 200 0 200 0 0 120 0 120 -200 0 -200 0 0 -120z"/>
<path d="M560 1940 l0 -120 620 0 620 0 0 120 0 120 -620 0 -620 0 0 -120z"/>
<path d="M2090 1762 c-13 -2 -15 -63 -13 -480 1 -262 2 -492 3 -510 l0 -33 68
3 67 3 -1 169 0 170 62 65 c56 59 64 64 76 49 7 -9 74 -97 148 -195 74 -98
137 -180 140 -183 3 -3 18 -22 33 -42 l28 -38 80 0 80 0 -23 33 c-12 17 -61
82 -108 143 -104 136 -108 142 -215 283 l-86 114 24 26 c33 36 92 102 114 127
36 42 159 179 205 228 26 28 48 56 48 61 0 6 -31 10 -76 9 -76 0 -77 0 -111
-40 -19 -21 -65 -72 -102 -113 -36 -41 -73 -82 -82 -93 -9 -10 -52 -57 -95
-104 -44 -48 -90 -100 -103 -115 -13 -16 -27 -29 -31 -29 -3 0 -6 108 -6 241
1 132 -1 244 -4 247 -5 7 -92 10 -120 4z"/>
<path d="M3039 1760 c0 -6 0 -945 1 -987 l0 -33 325 0 325 0 0 55 0 55 -258 0
-258 0 0 180 c0 99 3 180 6 181 3 0 102 1 220 2 l215 2 2 40 c3 74 16 70 -214
69 -115 0 -213 1 -218 3 -7 2 -11 62 -11 163 l0 160 40 1 c23 0 137 0 254 0
204 0 212 0 213 19 1 26 1 66 0 83 -1 9 -72 12 -321 12 -176 0 -320 -2 -321
-5z"/>
<path d="M880 1460 l0 -120 460 0 460 0 0 120 0 120 -460 0 -460 0 0 -120z"/>
<path d="M120 1020 l0 -120 380 0 380 0 0 120 0 120 -380 0 -380 0 0 -120z"/>
<path d="M1040 1020 l0 -120 380 0 380 0 0 120 0 120 -380 0 -380 0 0 -120z"/>
</g>
</svg>
